<?xml version="1.0" standalone="no"?>
<!DOCTYPE svg PUBLIC "-//W3C//DTD SVG 20010904//EN"
 "http://www.w3.org/TR/2001/REC-SVG-20010904/DTD/svg10.dtd">
<svg version="1.0" xmlns="http://www.w3.org/2000/svg"
 width="225.000000pt" height="225.000000pt" viewBox="0 0 225.000000 225.000000"
 preserveAspectRatio="xMidYMid meet">

<g transform="translate(0.000000,225.000000) scale(0.100000,-0.100000)"
fill="#000000" stroke="none">
<path d="M975 2239 c-226 -28 -446 -134 -616 -296 -207 -196 -322 -429 -351
-708 -41 -393 130 -774 456 -1017 318 -237 767 -282 1132 -114 226 105 432
307 539 531 204 424 128 920 -192 1256 -257 271 -600 394 -968 348z m355 -55
c400 -75 725 -378 837 -779 31 -112 42 -333 23 -453 -67 -417 -372 -753 -790
-870 -87 -25 -111 -27 -275 -27 -157 0 -191 3 -265 23 -197 53 -352 144 -495
287 -142 141 -233 298 -286 490 -30 113 -38 345 -15 469 82 437 430 782 871
864 83 16 304 14 395 -4z"/>
<path d="M1039 1697 c-104 -29 -182 -97 -227 -197 -21 -44 -26 -71 -26 -135
-1 -71 3 -88 31 -146 19 -39 52 -84 79 -109 25 -23 44 -43 42 -43 -109 -54
-185 -115 -239 -193 -67 -98 -110 -281 -74 -317 39 -39 59 -17 74 83 29 191
169 337 359 372 126 23 260 -20 363 -118 73 -71 114 -152 130 -257 12 -81 26
-103 58 -92 31 9 36 51 19 136 -23 112 -62 183 -143 264 -58 59 -90 81 -173
122 -2 0 17 20 42 43 27 25 60 70 79 109 28 58 32 75 31 146 0 94 -28 166 -89
234 -77 85 -227 129 -336 98z m186 -96 c98 -44 155 -131 155 -237 0 -74 -18
-121 -67 -175 -70 -77 -160 -103 -258 -74 -181 52 -245 275 -121 422 64 76
200 106 291 64z"/>
</g>
</svg>
